<svg width="295" height="59" viewBox="0 0 295 59" fill="none" xmlns="http://www.w3.org/2000/svg">
<path d="M41.8181 48.8306L2.33861 21.5977C-1.66215 18.8381 -0.302154 13.0922 4.6867 11.741L46.6463 0.352723C47.5351 0.0320001 48.4876 -0.0721106 49.4248 0.0490339C50.3619 0.170178 51.2566 0.513083 52.0347 1.04929C52.8127 1.58549 53.4517 2.29953 53.8985 3.13215C54.3453 3.96476 54.5871 4.89194 54.6038 5.83672L52.1171 44.4557C51.8222 49.0397 45.8188 51.5902 41.8181 48.8306Z" fill="#E9327C"/>
<path d="M29.2964 55.5532L6.03781 10.0682C5.50615 9.02767 5.27219 7.86049 5.36174 6.69541C5.45129 5.53032 5.86086 4.4126 6.54529 3.4655C7.22972 2.5184 8.16242 1.77873 9.24053 1.32804C10.3186 0.877352 11.5003 0.733167 12.6551 0.911382L55.759 7.56391C56.7514 7.71709 57.6933 8.10363 58.5072 8.69176C59.3211 9.27988 59.9837 10.0528 60.4407 10.9469C60.8976 11.8411 61.1358 12.8309 61.1357 13.8351C61.1355 14.8392 60.897 15.829 60.4398 16.723L40.5834 55.5554C40.0503 56.593 39.2413 57.4635 38.2456 58.0712C37.2498 58.6789 36.1058 59.0003 34.9392 59.0001C33.7727 58.9999 32.6288 58.678 31.6333 58.0699C30.6377 57.4618 29.8291 56.591 29.2964 55.5532Z" fill="#1DACE3"/>
<path d="M54.4982 7.36837L33.0111 4.052L6.62988 11.2151L17.1599 31.8153L41.8181 48.8306C42.3621 49.2018 42.9605 49.4861 43.5918 49.6735L52.9577 31.3575L54.4982 7.36837Z" fill="#3A68B8"/>
<path d="M163.335 12.6849C163.335 11.8862 163.572 11.1055 164.016 10.4414C164.459 9.77734 165.09 9.25975 165.828 8.95411C166.566 8.64847 167.378 8.56851 168.161 8.72432C168.944 8.88014 169.664 9.26474 170.229 9.82949C170.793 10.3942 171.178 11.1138 171.334 11.8971C171.49 12.6804 171.41 13.4924 171.104 14.2302C170.798 14.9681 170.281 15.5988 169.617 16.0425C168.953 16.4862 168.172 16.7231 167.373 16.7231C166.306 16.7122 165.285 16.2832 164.53 15.5283C163.775 14.7733 163.346 13.7525 163.335 12.6849ZM164.009 18.6971H170.74V41.1304H164.009V18.6971Z" fill="white"/>
<path d="M199.811 29.9138C199.889 31.3966 199.673 32.8802 199.176 34.2794C198.679 35.6785 197.91 36.9655 196.913 38.0664C195.917 39.1673 194.713 40.0604 193.37 40.6942C192.027 41.3281 190.572 41.6902 189.089 41.7598C187.841 41.8277 186.594 41.6173 185.438 41.1438C184.282 40.6704 183.245 39.9457 182.404 39.0222V50.1046H175.674V18.6971H182.404V20.8053C183.245 19.8823 184.282 19.158 185.438 18.6849C186.595 18.2118 187.842 18.0017 189.089 18.0699C190.572 18.1392 192.027 18.5011 193.37 19.1347C194.712 19.7683 195.917 20.6612 196.913 21.7619C197.91 22.8627 198.679 24.1495 199.176 25.5486C199.673 26.9476 199.889 28.4311 199.811 29.9138ZM193.081 29.9138C193.055 28.8635 192.719 27.8443 192.116 26.9837C191.513 26.1232 190.67 25.4596 189.692 25.0759C188.714 24.6923 187.645 24.6056 186.617 24.8267C185.59 25.0479 184.651 25.5671 183.918 26.3193C183.184 27.0716 182.689 28.0234 182.494 29.0558C182.299 30.0881 182.412 31.1551 182.82 32.1232C183.229 33.0913 183.913 33.9175 184.789 34.4984C185.664 35.0793 186.692 35.3891 187.742 35.389C188.464 35.4215 189.184 35.301 189.856 35.0355C190.527 34.77 191.135 34.3654 191.639 33.8483C192.143 33.3312 192.532 32.7134 192.781 32.0353C193.029 31.3572 193.132 30.6342 193.081 29.9138Z" fill="white"/>
<path d="M220.583 34.3966C220.583 39.5571 216.096 41.7555 211.25 41.7555C209.292 41.9327 207.327 41.5183 205.607 40.5662C203.888 39.614 202.493 38.1678 201.605 36.4146L207.436 33.096C207.673 33.9064 208.181 34.6108 208.876 35.0915C209.57 35.5722 210.408 35.8 211.25 35.7368C212.865 35.7368 213.671 35.2416 213.671 34.346C213.671 31.8768 202.634 33.1796 202.634 25.4158C202.634 20.5259 206.761 18.059 211.437 18.059C213.191 18.004 214.928 18.4202 216.466 19.2643C218.005 20.1085 219.289 21.3497 220.185 22.8586L214.443 25.9549C214.192 25.366 213.773 24.8642 213.238 24.5119C212.704 24.1597 212.077 23.9727 211.437 23.9743C210.271 23.9743 209.553 24.4145 209.553 25.2309C209.547 27.8057 220.583 26.1002 220.583 34.3966Z" fill="white"/>
<path d="M245.179 18.6968V41.1301H238.45V39.0175C237.672 39.9481 236.685 40.6814 235.57 41.1572C234.455 41.633 233.242 41.8379 232.033 41.7551C227.501 41.7551 223.644 38.5245 223.644 32.4662V18.6968H230.373V31.4847C230.317 32.0194 230.377 32.56 230.551 33.0688C230.724 33.5777 231.007 34.0426 231.378 34.4312C231.75 34.8198 232.202 35.1227 232.703 35.3188C233.203 35.515 233.741 35.5996 234.277 35.5669C236.744 35.5669 238.458 34.1321 238.458 30.9455V18.6968H245.179Z" fill="white"/>
<path d="M283.752 27.3538V41.1298H277.022V27.9391C277.022 25.6967 275.944 24.2597 273.792 24.2597C271.547 24.2597 270.293 25.8309 270.293 28.4783V41.1298H263.561V27.9391C263.561 25.6967 262.485 24.2597 260.331 24.2597C258.088 24.2597 256.832 25.8309 256.832 28.4783V41.1298H250.102V18.6965H256.842V20.7518C257.54 19.8366 258.456 19.1108 259.506 18.6406C260.556 18.1705 261.707 17.971 262.855 18.0605C264.007 18.0041 265.153 18.2472 266.184 18.7659C267.214 19.2846 268.092 20.0613 268.733 21.0203C269.478 20.0169 270.467 19.2191 271.605 18.7014C272.743 18.1838 273.993 17.9633 275.24 18.0605C280.389 18.0693 283.752 21.7465 283.752 27.3538Z" fill="white"/>
<path d="M289.454 18.558C292.213 18.558 294.449 16.3215 294.449 13.5626C294.449 10.8037 292.213 8.56714 289.454 8.56714C286.695 8.56714 284.458 10.8037 284.458 13.5626C284.458 16.3215 286.695 18.558 289.454 18.558Z" fill="white"/>
<path d="M71.4542 8.37817H78.1859V41.1303H71.4542V8.37817ZM81.9974 29.9136C81.99 27.5617 82.6807 25.2605 83.9819 23.3014C85.2832 21.3422 87.1365 19.8133 89.3073 18.9081C91.478 18.0029 93.8686 17.7623 96.1762 18.2166C98.4838 18.6709 100.605 19.7997 102.27 21.4601C103.936 23.1205 105.072 25.2379 105.533 27.5441C105.995 29.8503 105.762 32.2415 104.863 34.4151C103.965 36.5887 102.442 38.4469 100.487 39.7543C98.5318 41.0618 96.2328 41.7597 93.8809 41.7597C92.3188 41.7764 90.7691 41.4817 89.3223 40.8927C87.8754 40.3038 86.5604 39.4324 85.454 38.3296C84.3477 37.2267 83.4722 35.9145 82.8787 34.4695C82.2852 33.0245 81.9856 31.4757 81.9974 29.9136ZM99.048 29.9136C99.0216 28.8991 98.6966 27.9149 98.1138 27.0841C97.5309 26.2533 96.716 25.6128 95.7711 25.2427C94.8261 24.8726 93.793 24.7894 92.8009 25.0034C91.8089 25.2175 90.902 25.7192 90.1937 26.446C89.4853 27.1728 89.007 28.0923 88.8185 29.0895C88.63 30.0867 88.7398 31.1173 89.134 32.0525C89.5282 32.9876 90.1894 33.7858 91.0349 34.3471C91.8804 34.9085 92.8726 35.208 93.8875 35.2084C94.5824 35.2282 95.2739 35.1038 95.9184 34.843C96.5629 34.5823 97.1463 34.1909 97.632 33.6934C98.1177 33.196 98.495 32.6033 98.7402 31.9527C98.9855 31.3022 99.0932 30.6079 99.0568 29.9136H99.048ZM132.606 18.6904V40.0036C132.606 47.5407 126.728 50.7251 120.762 50.7251C118.662 50.8836 116.559 50.4609 114.683 49.5032C112.807 48.5456 111.231 47.09 110.128 45.2961L115.87 41.9753C116.333 42.9116 117.071 43.6841 117.986 44.1894C118.9 44.6948 119.947 44.9089 120.986 44.8032C121.649 44.8937 122.325 44.8342 122.962 44.629C123.599 44.4237 124.182 44.078 124.668 43.6174C125.154 43.1567 125.53 42.5928 125.769 41.9674C126.008 41.3419 126.103 40.6708 126.048 40.0036V37.9394C125.259 38.9034 124.256 39.6693 123.118 40.1756C121.981 40.682 120.74 40.9147 119.496 40.8552C116.535 40.7632 113.726 39.5222 111.664 37.3951C109.602 35.268 108.449 32.4217 108.449 29.4592C108.449 26.4967 109.602 23.6504 111.664 21.5233C113.726 19.3962 116.535 18.1552 119.496 18.0632C120.74 18.0037 121.981 18.2364 123.118 18.7428C124.256 19.2491 125.259 20.015 126.048 20.979V18.6904H132.606ZM126.056 29.4581C126.101 28.3746 125.82 27.3026 125.25 26.3799C124.68 25.4572 123.848 24.726 122.859 24.2804C121.87 23.8348 120.771 23.6951 119.702 23.8792C118.634 24.0633 117.645 24.5629 116.862 25.3137C116.08 26.0645 115.54 27.0322 115.311 28.0923C115.083 29.1525 115.178 30.2566 115.582 31.2628C115.986 32.2691 116.682 33.1313 117.581 33.7387C118.479 34.3461 119.539 34.6709 120.623 34.6714C121.33 34.7211 122.04 34.6223 122.706 34.3813C123.373 34.1403 123.982 33.7624 124.493 33.272C125.005 32.7816 125.409 32.1894 125.678 31.5337C125.947 30.878 126.076 30.1732 126.056 29.4647V29.4581ZM136.417 29.8982C136.41 27.5463 137.1 25.2451 138.402 23.286C139.703 21.3268 141.556 19.7979 143.727 18.8927C145.898 17.9875 148.288 17.7469 150.596 18.2012C152.903 18.6554 155.024 19.7843 156.69 21.4447C158.356 23.1051 159.491 25.2225 159.953 27.5287C160.414 29.8349 160.181 32.2261 159.283 34.3997C158.385 36.5733 156.861 38.4315 154.906 39.7389C152.951 41.0463 150.652 41.7443 148.3 41.7443C146.74 41.7609 145.191 41.4667 143.745 40.8787C142.3 40.2908 140.985 39.4208 139.879 38.3196C138.773 37.2184 137.897 35.908 137.303 34.4648C136.708 33.0215 136.407 31.4744 136.417 29.9136V29.8982ZM153.468 29.8982C153.442 28.8831 153.117 27.8981 152.534 27.0666C151.951 26.2351 151.136 25.594 150.19 25.2235C149.245 24.853 148.211 24.7695 147.218 24.9836C146.226 25.1976 145.318 25.6996 144.609 26.4268C143.901 27.1541 143.422 28.0742 143.234 29.072C143.045 30.0698 143.155 31.1011 143.55 32.0368C143.944 32.9724 144.606 33.7709 145.452 34.3323C146.299 34.8937 147.292 35.1931 148.307 35.193C149 35.2114 149.689 35.0865 150.331 34.8261C150.974 34.5658 151.555 34.1756 152.04 33.6799C152.524 33.1843 152.901 32.5939 153.147 31.9458C153.393 31.2977 153.502 30.6059 153.468 29.9136V29.8982Z" fill="white"/>
</svg>
